<?xml version="1.0" encoding="utf-8"?>
<!-- Generator: Adobe Illustrator 23.0.1, SVG Export Plug-In . SVG Version: 6.00 Build 0)  -->
<svg version="1.1" id="Capa_1" xmlns="http://www.w3.org/2000/svg" xmlns:xlink="http://www.w3.org/1999/xlink" x="0px" y="0px"
	 viewBox="0 0 25.7 25" style="enable-background:new 0 0 25.7 25;" xml:space="preserve">
<style type="text/css">
	.st0{fill:#FFFFFF;}
</style>
<g>
	<g>
		<rect x="9.1" y="22.1" class="st0" width="2.9" height="2.9"/>
		<rect x="0" y="22.1" class="st0" width="2.9" height="2.9"/>
		<polygon class="st0" points="9.1,16.2 12,16.2 12,13.3 9.1,13.3 9.1,16.2 6.2,16.2 6.2,19.1 6.1,19.1 3,19.1 3,22.1 6.1,22.1 
			9.1,22.1 9.1,19.1 		"/>
		<rect y="13.3" class="st0" width="2.9" height="2.9"/>
	</g>
	<g>
		<rect x="22.8" y="8.9" class="st0" width="2.9" height="2.9"/>
		<rect x="13.7" y="8.9" class="st0" width="2.9" height="2.9"/>
		<rect x="22.7" y="0.1" class="st0" width="2.9" height="2.9"/>
		<rect x="13.6" y="0.1" class="st0" width="2.9" height="2.9"/>
		<polygon class="st0" points="19.7,4.4 17.2,4.4 17.2,7.5 19.7,7.5 19.7,9 22.7,9 22.7,5.9 22.7,5.9 22.7,2.9 19.7,2.9 		"/>
	</g>
	<path class="st0" d="M0.2,0v11.9h11.9V0H0.2z M10.3,10.1H2V1.8h8.3V10.1z"/>
	<rect x="3" y="2.8" class="st0" width="6.3" height="6.3"/>
	<path class="st0" d="M13.6,13.1V25h11.9V13.1H13.6z M23.7,23.2h-8.3v-8.3h8.3V23.2z"/>
	<rect x="16.4" y="15.9" class="st0" width="6.3" height="6.3"/>
</g>
</svg>
