<?xml version="1.0" encoding="utf-8"?>
<!-- Generator: Adobe Illustrator 23.0.1, SVG Export Plug-In . SVG Version: 6.00 Build 0)  -->
<svg version="1.1" id="Capa_1" xmlns="http://www.w3.org/2000/svg" xmlns:xlink="http://www.w3.org/1999/xlink" x="0px" y="0px"
	 viewBox="0 0 26.8 26.8" style="enable-background:new 0 0 26.8 26.8;" xml:space="preserve">
<style type="text/css">
	.st0{fill:#7063F1;}
</style>
<g>
	<g>
		<path class="st0" d="M14.7,26.8H12c-0.8,0-1.4-0.6-1.4-1.4v-1.7c-0.9-0.2-1.7-0.6-2.5-1l-1.2,1.2c-0.5,0.5-1.5,0.5-2,0L3,21.9
			c-0.3-0.3-0.4-0.6-0.4-1c0-0.4,0.2-0.7,0.4-1l1.2-1.2c-0.4-0.8-0.8-1.6-1-2.5H1.4c-0.8,0-1.4-0.6-1.4-1.4V12
			c0-0.8,0.6-1.4,1.4-1.4h1.7c0.2-0.9,0.6-1.7,1-2.5L3,6.9c-0.3-0.3-0.4-0.6-0.4-1c0-0.4,0.2-0.7,0.4-1L4.9,3c0.5-0.5,1.5-0.5,2,0
			l1.2,1.2c0.8-0.4,1.6-0.8,2.5-1V1.4C10.6,0.6,11.2,0,12,0h2.7c0.8,0,1.4,0.6,1.4,1.4v1.7c0.9,0.2,1.7,0.6,2.5,1L19.8,3
			c0.5-0.5,1.5-0.5,2,0l1.9,1.9c0.3,0.3,0.4,0.6,0.4,1c0,0.4-0.2,0.7-0.4,1l-1.2,1.2c0.4,0.8,0.8,1.6,1,2.5h1.7
			c0.8,0,1.4,0.6,1.4,1.4v2.7c0,0.8-0.6,1.4-1.4,1.4h-1.7c-0.2,0.9-0.6,1.7-1,2.5l1.2,1.2c0.3,0.3,0.4,0.6,0.4,1
			c0,0.4-0.2,0.7-0.4,1l-1.9,1.9c-0.5,0.5-1.5,0.5-2,0l-1.2-1.2c-0.8,0.4-1.6,0.8-2.5,1v1.7C16.2,26.1,15.5,26.8,14.7,26.8z M8,21.2
			l0.4,0.2c0.9,0.6,1.9,1,2.9,1.2l0.4,0.1v2.6c0,0.2,0.1,0.3,0.3,0.3h2.7c0.2,0,0.3-0.1,0.3-0.3v-2.6l0.4-0.1c1-0.2,2-0.6,2.9-1.2
			l0.4-0.2l1.8,1.8c0.1,0.1,0.3,0.1,0.5,0l1.9-1.9c0.1-0.1,0.1-0.1,0.1-0.2c0-0.1,0-0.2-0.1-0.2l-1.8-1.8l0.2-0.4
			c0.6-0.9,1-1.9,1.2-2.9l0.1-0.4h2.6c0.2,0,0.3-0.1,0.3-0.3V12c0-0.2-0.1-0.3-0.3-0.3h-2.6l-0.1-0.4c-0.2-1-0.6-2-1.2-2.9L21.2,8
			L23,6.1c0.1-0.1,0.1-0.1,0.1-0.2c0-0.1,0-0.2-0.1-0.2l-1.9-1.9c-0.1-0.1-0.3-0.1-0.5,0l-1.8,1.8l-0.4-0.2c-0.9-0.6-1.9-1-2.9-1.2
			L15,4V1.4c0-0.2-0.1-0.3-0.3-0.3H12c-0.2,0-0.3,0.1-0.3,0.3V4l-0.4,0.1c-1,0.2-2,0.6-2.9,1.2L8,5.6L6.1,3.8C6,3.6,5.8,3.6,5.7,3.8
			L3.8,5.7C3.7,5.7,3.7,5.8,3.7,5.9c0,0.1,0,0.2,0.1,0.2L5.6,8L5.4,8.3c-0.6,0.9-1,1.9-1.2,2.9L4,11.7H1.4c-0.2,0-0.3,0.1-0.3,0.3
			v2.7c0,0.2,0.1,0.3,0.3,0.3H4l0.1,0.4c0.2,1,0.6,2,1.2,2.9l0.2,0.4l-1.8,1.8c-0.1,0.1-0.1,0.1-0.1,0.2c0,0.1,0,0.2,0.1,0.2L5.7,23
			c0.1,0.1,0.3,0.1,0.5,0L8,21.2z"/>
	</g>
	<g>
		<path class="st0" d="M13.4,18.9c-3.1,0-5.6-2.5-5.6-5.6s2.5-5.6,5.6-5.6s5.6,2.5,5.6,5.6S16.4,18.9,13.4,18.9z M13.4,8.9
			c-2.5,0-4.5,2-4.5,4.5s2,4.5,4.5,4.5s4.5-2,4.5-4.5S15.8,8.9,13.4,8.9z"/>
	</g>
</g>
</svg>
