<?xml version="1.0" encoding="utf-8"?>
<!-- Generator: Adobe Illustrator 23.0.1, SVG Export Plug-In . SVG Version: 6.00 Build 0)  -->
<svg version="1.1" id="Capa_1" xmlns="http://www.w3.org/2000/svg" xmlns:xlink="http://www.w3.org/1999/xlink" x="0px" y="0px"
	 viewBox="0 0 37 26" style="enable-background:new 0 0 37 26;" xml:space="preserve">
<style type="text/css">
	.st0{fill:#3A79F3;}
	.st1{fill:#FFFFFF;}
</style>
<g>
	<path class="st0" d="M33.9,0h-4.7C27.4,0,26,1.4,26,3.1V4H3C1.3,4,0,5.3,0,7V23c0,1.6,1.3,3,3,3H34c1.6,0,3-1.3,3-3V8V7V3.1
		C37,1.4,35.6,0,33.9,0z M19,22c-3.9,0-7-3.1-7-7c0-3.9,3.1-7,7-7s7,3.1,7,7C26,18.9,22.9,22,19,22z"/>
	<circle class="st0" cx="19" cy="15" r="5"/>
	<path class="st1" d="M3.5,23L3.5,23C3.2,23,3,22.8,3,22.5v-15C3,7.2,3.2,7,3.5,7h0C3.8,7,4,7.2,4,7.5v15C4,22.8,3.8,23,3.5,23z"/>
</g>
</svg>
