<?xml version="1.0" encoding="utf-8"?>
<!-- Generator: Adobe Illustrator 23.0.0, SVG Export Plug-In . SVG Version: 6.00 Build 0)  -->
<svg version="1.1" id="Capa_1" xmlns="http://www.w3.org/2000/svg" xmlns:xlink="http://www.w3.org/1999/xlink" x="0px" y="0px"
	 viewBox="0 0 458.4 151.9" style="enable-background:new 0 0 458.4 151.9;" xml:space="preserve">
<style type="text/css">
	.st0{fill:#188BEA;}
	.st1{fill:#188BEA;stroke:#FFFFFF;stroke-width:6;stroke-miterlimit:10;}
	.st2{fill:#FFFFFF;}
</style>
<path class="st0" d="M429,151.9H29.4C13.2,151.9,0,138.8,0,122.5V29.4C0,13.2,13.2,0,29.4,0H429c16.2,0,29.4,13.2,29.4,29.4v93.1
	C458.4,138.8,445.2,151.9,429,151.9z"/>
<g>
	<g>
		<path class="st1" d="M197.9,99.9c-8-7-12.5-16.1-12.5-25.9c0-20.4,19.6-37,43.6-37s43.6,16.6,43.6,37s-19.6,37-43.6,37
			c-6,0-11.8-1-17.3-3l-20.5,6.8L197.9,99.9z"/>
	</g>
	<polygon class="st2" points="238.4,88.9 214.6,71.7 201.4,86.2 214.6,59.8 238.4,77 254.2,58.5 	"/>
</g>
</svg>
