<?xml version="1.0" encoding="utf-8"?>
<!-- Generator: Adobe Illustrator 23.0.0, SVG Export Plug-In . SVG Version: 6.00 Build 0)  -->
<svg version="1.1" id="Capa_1" xmlns="http://www.w3.org/2000/svg" xmlns:xlink="http://www.w3.org/1999/xlink" x="0px" y="0px"
	 viewBox="0 0 458.4 151.9" style="enable-background:new 0 0 458.4 151.9;" xml:space="preserve">
<style type="text/css">
	.st0{fill:#3B5998;}
	.st1{fill:#FFFFFF;}
</style>
<g>
	<path class="st0" d="M429,151.9H29.4C13.2,151.9,0,138.8,0,122.5V29.4C0,13.2,13.2,0,29.4,0H429c16.2,0,29.4,13.2,29.4,29.4v93.1
		C458.4,138.8,445.2,151.9,429,151.9z"/>
	<g>
		<circle class="st0" cx="226.4" cy="76" r="72.9"/>
		<path class="st1" d="M244.8,78.9h-13v47.7h-19.7V78.9h-9.4V62.1h9.4V51.3c0-7.8,3.7-19.9,19.9-19.9l14.6,0.1v16.3h-10.6
			c-1.7,0-4.2,0.9-4.2,4.6v9.9h14.7L244.8,78.9z"/>
	</g>
</g>
</svg>
