<?xml version="1.0" encoding="utf-8"?>
<!-- Generator: Adobe Illustrator 23.0.0, SVG Export Plug-In . SVG Version: 6.00 Build 0)  -->
<svg version="1.1" id="Capa_1" xmlns="http://www.w3.org/2000/svg" xmlns:xlink="http://www.w3.org/1999/xlink" x="0px" y="0px"
	 viewBox="0 0 458.4 151.9" style="enable-background:new 0 0 458.4 151.9;" xml:space="preserve">
<style type="text/css">
	.st0{fill:#FF9A00;}
	.st1{fill:#FFFFFF;}
</style>
<path class="st0" d="M429,151.9H29.4C13.2,151.9,0,138.8,0,122.5V29.4C0,13.2,13.2,0,29.4,0H429c16.2,0,29.4,13.2,29.4,29.4v93.1
	C458.4,138.8,445.2,151.9,429,151.9z"/>
<g>
	<path class="st1" d="M169.1,100.6c-2.7-0.9-5.2-2.3-7.6-4.4c-1.3-1.2-1.9-2.4-1.9-3.8c0-1.1,0.4-2.1,1.2-2.9
		c0.8-0.8,1.8-1.3,2.9-1.3c0.9,0,1.7,0.3,2.4,0.9c1.9,1.6,3.8,2.7,5.6,3.5c1.8,0.7,4,1.1,6.5,1.1c2.7,0,5-0.6,6.9-1.8
		c1.9-1.2,2.9-2.7,2.9-4.5c0-2.2-1-3.8-2.9-5.1c-1.9-1.2-5-2.1-9.1-2.8c-10.5-1.5-15.8-6.4-15.8-14.7c0-3,0.8-5.6,2.4-7.9
		c1.6-2.2,3.7-3.9,6.5-5.1c2.7-1.2,5.8-1.8,9.1-1.8c3,0,5.9,0.5,8.5,1.4c2.7,0.9,4.9,2.1,6.7,3.6c1.4,1.1,2.1,2.4,2.1,3.8
		c0,1.1-0.4,2.1-1.2,2.9c-0.8,0.8-1.8,1.3-2.9,1.3c-0.7,0-1.4-0.2-1.9-0.6c-1.2-1-3-1.9-5.2-2.8c-2.2-0.8-4.2-1.3-6-1.3
		c-3,0-5.4,0.6-7,1.7c-1.7,1.1-2.5,2.6-2.5,4.4c0,2.1,0.9,3.6,2.6,4.7c1.7,1.1,4.4,1.9,8,2.6c4.1,0.7,7.4,1.6,9.9,2.8
		c2.5,1.1,4.3,2.7,5.6,4.6s1.9,4.5,1.9,7.7c0,3-0.9,5.7-2.6,7.9c-1.7,2.3-4,4-6.8,5.3c-2.8,1.2-5.9,1.8-9.1,1.8
		C174.9,101.9,171.8,101.4,169.1,100.6z"/>
	<path class="st1" d="M251.9,52c0.9,0.8,1.3,1.9,1.3,3.1v41.7c0,1.2-0.4,2.3-1.2,3.1c-0.8,0.8-1.9,1.3-3.2,1.3
		c-1.3,0-2.4-0.4-3.3-1.2c-0.8-0.8-1.3-1.9-1.3-3.2v-29l-11.9,18.1c-0.5,0.6-1,1-1.7,1.4c-0.6,0.4-1.3,0.5-1.9,0.5
		c-0.6,0-1.2-0.1-1.9-0.5c-0.6-0.4-1.2-0.8-1.7-1.4l-11.9-18.8v29.6c0,1.3-0.4,2.4-1.2,3.2c-0.8,0.8-1.8,1.2-3,1.2
		c-1.2,0-2.2-0.4-2.9-1.3c-0.8-0.8-1.2-1.9-1.2-3.1V55.1c0-1.2,0.4-2.2,1.3-3.1c0.9-0.9,2-1.3,3.2-1.3c0.7,0,1.4,0.2,2.2,0.5
		c0.7,0.4,1.3,0.8,1.7,1.4l15.7,24.1l16.1-24.1c0.4-0.6,0.9-1,1.5-1.4c0.6-0.4,1.3-0.5,2-0.5C250,50.7,251,51.1,251.9,52z"/>
	<path class="st1" d="M271,100.6c-2.7-0.9-5.2-2.3-7.6-4.4c-1.3-1.2-1.9-2.4-1.9-3.8c0-1.1,0.4-2.1,1.2-2.9c0.8-0.8,1.8-1.3,2.9-1.3
		c0.9,0,1.7,0.3,2.4,0.9c1.9,1.6,3.8,2.7,5.6,3.5c1.8,0.7,4,1.1,6.5,1.1c2.7,0,5-0.6,6.9-1.8c1.9-1.2,2.9-2.7,2.9-4.5
		c0-2.2-1-3.8-2.9-5.1c-1.9-1.2-5-2.1-9.1-2.8c-10.5-1.5-15.8-6.4-15.8-14.7c0-3,0.8-5.6,2.4-7.9c1.6-2.2,3.7-3.9,6.5-5.1
		c2.7-1.2,5.8-1.8,9.1-1.8c3,0,5.9,0.5,8.5,1.4c2.7,0.9,4.9,2.1,6.7,3.6c1.4,1.1,2.1,2.4,2.1,3.8c0,1.1-0.4,2.1-1.2,2.9
		c-0.8,0.8-1.8,1.3-2.9,1.3c-0.7,0-1.4-0.2-1.9-0.6c-1.2-1-3-1.9-5.2-2.8c-2.2-0.8-4.2-1.3-6-1.3c-3,0-5.4,0.6-7,1.7
		c-1.7,1.1-2.5,2.6-2.5,4.4c0,2.1,0.9,3.6,2.6,4.7c1.7,1.1,4.4,1.9,8,2.6c4.1,0.7,7.4,1.6,9.9,2.8c2.5,1.1,4.3,2.7,5.6,4.6
		c1.2,1.9,1.9,4.5,1.9,7.7c0,3-0.9,5.7-2.6,7.9c-1.7,2.3-4,4-6.8,5.3c-2.8,1.2-5.9,1.8-9.1,1.8C276.8,101.9,273.7,101.4,271,100.6z"
		/>
</g>
</svg>
