<?xml version="1.0" encoding="utf-8"?>
<!-- Generator: Adobe Illustrator 23.0.1, SVG Export Plug-In . SVG Version: 6.00 Build 0)  -->
<svg version="1.1" id="Capa_1" xmlns="http://www.w3.org/2000/svg" xmlns:xlink="http://www.w3.org/1999/xlink" x="0px" y="0px"
	 viewBox="0 0 24.7 26" style="enable-background:new 0 0 24.7 26;" xml:space="preserve">
<style type="text/css">
	.st0{fill:#FFFFFF;}
</style>
<g>
	<path class="st0" d="M21.6,11.4c-1.4,0-2.5-0.8-3.1-1.9c-0.6,1.1-1.7,1.9-3.1,1.9s-2.5-0.8-3.1-1.9c-0.6,1.1-1.7,1.9-3.1,1.9
		s-2.5-0.8-3.1-1.9c-0.6,1.1-1.7,1.9-3.1,1.9c-1.4,0-2.5-0.8-3.1-1.9v15C0,25.3,0.7,26,1.5,26h13.6V16h5.4v10h2.8
		c0.8,0,1.5-0.7,1.5-1.5v-15C24.2,10.6,23,11.4,21.6,11.4z M12.5,21H3.2v-5.7h9.3V21z"/>
	<path class="st0" d="M0.4,6.8c0.1,1.4,1.3,2.6,2.7,2.6s2.7-1.2,2.7-2.6h0.7c0.1,1.4,1.3,2.6,2.7,2.6s2.7-1.2,2.7-2.6h0.7
		c0.1,1.4,1.3,2.6,2.7,2.6s2.7-1.2,2.7-2.6h0.7c0.1,1.4,1.3,2.6,2.7,2.6s2.7-1.2,2.7-2.6h0.4V1.5c0-0.8-0.7-1.5-1.5-1.5H1.5
		C0.7,0,0,0.7,0,1.5v5.3H0.4z"/>
</g>
</svg>
