<?xml version="1.0" encoding="utf-8"?>
<!-- Generator: Adobe Illustrator 23.0.1, SVG Export Plug-In . SVG Version: 6.00 Build 0)  -->
<svg version="1.1" id="Capa_1" xmlns="http://www.w3.org/2000/svg" xmlns:xlink="http://www.w3.org/1999/xlink" x="0px" y="0px"
	 viewBox="0 0 26 26" style="enable-background:new 0 0 26 26;" xml:space="preserve">
<style type="text/css">
	.st0{fill:#7063F1;}
</style>
<path class="st0" d="M13,0C5.8,0,0,5.8,0,13c0,7.2,5.8,13,13,13s13-5.8,13-13C26,5.8,20.2,0,13,0z M13,1.5c6.3,0,11.5,5.1,11.5,11.5
	c0,1.4-0.3,2.8-0.8,4l0.1-0.7c-1.5-0.3-2-1.4-2.2-2c0.9-0.5,1.4-1.5,1.4-2.5c0-1.7-1.3-3-3-3c-1.7,0-3,1.3-3,3c0,1,0.5,2,1.3,2.5
	c-0.2,0.5-0.6,1.6-2,1.9c-1.3-0.4-1.8-1.4-1.9-1.9c0.9-0.5,1.4-1.5,1.4-2.5c0-1.7-1.3-3-3-3c-1.7,0-3,1.3-3,3c0,1,0.5,2,1.3,2.5
	c-0.2,0.5-0.6,1.6-2,1.9C8.1,16,7.6,15,7.4,14.4c0.9-0.5,1.4-1.5,1.4-2.5c0-1.7-1.3-3-3-3s-3,1.3-3,3c0,1,0.5,2,1.3,2.5
	c-0.2,0.5-0.7,1.7-2.1,2c-0.3-1.1-0.5-2.2-0.5-3.4C1.5,6.7,6.7,1.5,13,1.5z M20.1,14.1c-1.2,0-2.3-1-2.3-2.3s1-2.3,2.3-2.3
	c1.2,0,2.3,1,2.3,2.3S21.3,14.1,20.1,14.1z M13,14.1c-1.2,0-2.3-1-2.3-2.3s1-2.3,2.3-2.3s2.3,1,2.3,2.3S14.2,14.1,13,14.1z
	 M5.8,14.1c-1.2,0-2.3-1-2.3-2.3s1-2.3,2.3-2.3s2.3,1,2.3,2.3S7.1,14.1,5.8,14.1z M13,24.5c-4.9,0-9.1-3.1-10.7-7.4
	c1.5-0.4,2.3-1.5,2.6-2.4c0.3,0.1,0.6,0.2,1,0.2c0.3,0,0.6-0.1,0.9-0.2c0.3,0.9,1,2,2.5,2.4h0.2c1.5-0.4,2.3-1.5,2.6-2.4
	c0.3,0.1,0.6,0.2,1,0.2c0.3,0,0.6-0.1,0.9-0.2c0.3,0.9,1,2,2.5,2.4h0.2c1.5-0.4,2.3-1.5,2.6-2.4c0.3,0.1,0.6,0.2,1,0.2
	c0.3,0,0.6-0.1,0.9-0.2c0.3,0.9,1.1,2.1,2.7,2.4C22,21.4,17.9,24.5,13,24.5z"/>
</svg>
