<?xml version="1.0" encoding="utf-8"?>
<!-- Generator: Adobe Illustrator 23.0.1, SVG Export Plug-In . SVG Version: 6.00 Build 0)  -->
<svg version="1.1" id="Capa_1" xmlns="http://www.w3.org/2000/svg" xmlns:xlink="http://www.w3.org/1999/xlink" x="0px" y="0px"
	 viewBox="0 0 63.5 26.5" style="enable-background:new 0 0 63.5 26.5;" xml:space="preserve">
<style type="text/css">
	.st0{fill:#FFFFFF;}
</style>
<g>
	<g>
		<path class="st0" d="M63.5,6V4c0-2.2-1.8-4-4-4H24.6c-2.2,0-4,1.8-4,4v2H63.5z"/>
	</g>
	<g>
		<path class="st0" d="M20.6,11.9v10.6c0,2.2,1.8,4,4,4h34.9c2.2,0,4-1.8,4-4V11.9H20.6z"/>
	</g>
</g>
<g>
	<path class="st0" d="M16.5,7H4.4c-0.6,0-1-0.4-1-1s0.4-1,1-1h12.1c0.6,0,1,0.4,1,1S17,7,16.5,7z"/>
</g>
<g>
	<path class="st0" d="M16.5,23.5H4.4c-0.6,0-1-0.4-1-1s0.4-1,1-1h12.1c0.6,0,1,0.4,1,1S17,23.5,16.5,23.5z"/>
</g>
<g>
	<path class="st0" d="M13.1,15.2H1c-0.6,0-1-0.4-1-1c0-0.6,0.4-1,1-1h12.1c0.6,0,1,0.4,1,1C14.1,14.8,13.6,15.2,13.1,15.2z"/>
</g>
</svg>
