<?xml version="1.0" encoding="utf-8"?>
<!-- Generator: Adobe Illustrator 23.0.1, SVG Export Plug-In . SVG Version: 6.00 Build 0)  -->
<svg version="1.1" id="Capa_1" xmlns="http://www.w3.org/2000/svg" xmlns:xlink="http://www.w3.org/1999/xlink" x="0px" y="0px"
	 viewBox="0 0 25.7 25.7" style="enable-background:new 0 0 25.7 25.7;" xml:space="preserve">
<style type="text/css">
	.st0{fill:#FFFFFF;}
</style>
<g>
	<path class="st0" d="M14,13.7v3.8c0.5-0.1,0.9-0.4,1.3-0.7c0.3-0.3,0.5-0.7,0.5-1.1c0-0.5-0.2-0.9-0.5-1.2
		C15,14.2,14.6,13.9,14,13.7z"/>
	<path class="st0" d="M10.3,9.5c0,0.5,0.2,0.9,0.5,1.2s0.8,0.6,1.4,0.8V7.6c-0.6,0.1-1.1,0.3-1.4,0.6C10.5,8.6,10.3,9,10.3,9.5z"/>
	<path class="st0" d="M12.9,0C5.8,0,0,5.8,0,12.9c0,2.5,0.7,4.9,2,6.9l0.3,0.5l-1.3,4.4l4.6-1.2l0.5,0.3c2,1.2,4.3,1.9,6.7,1.9
		c7.1,0,12.9-5.8,12.9-12.9C25.7,5.8,20,0,12.9,0z M16.6,18c-0.7,0.7-1.5,1.1-2.6,1.3v1.5c0,0.3-0.1,0.5-0.3,0.6
		c-0.2,0.2-0.4,0.3-0.6,0.3c-0.3,0-0.5-0.1-0.6-0.3s-0.3-0.4-0.3-0.6v-1.5c-0.7-0.1-1.4-0.2-2-0.5c-0.6-0.2-1.2-0.6-1.7-1.1
		c-0.3-0.2-0.4-0.5-0.4-0.8c0-0.2,0.1-0.4,0.3-0.6c0.2-0.2,0.4-0.3,0.6-0.3c0.2,0,0.4,0.1,0.5,0.2c0.4,0.4,0.8,0.7,1.2,0.9
		c0.4,0.2,0.9,0.4,1.4,0.4v-4.3C11,13,10.1,12.6,9.5,12s-1-1.4-1-2.4c0-1,0.3-1.8,1-2.4c0.7-0.6,1.6-1,2.7-1.2v-1
		c0-0.3,0.1-0.5,0.3-0.6C12.7,4.1,12.9,4,13.1,4c0.3,0,0.5,0.1,0.6,0.3C13.9,4.5,14,4.7,14,4.9v1c0.6,0.1,1.1,0.2,1.6,0.5
		c0.5,0.2,0.9,0.5,1.3,0.8c0.3,0.3,0.4,0.5,0.4,0.8c0,0.2-0.1,0.4-0.3,0.6c-0.2,0.2-0.4,0.3-0.6,0.3c-0.2,0-0.3,0-0.4-0.1
		c-0.2-0.2-0.5-0.4-0.9-0.6c-0.4-0.2-0.7-0.3-1.1-0.4v4.2c1.2,0.3,2.1,0.7,2.7,1.3c0.6,0.6,0.9,1.4,0.9,2.5
		C17.6,16.6,17.2,17.4,16.6,18z"/>
</g>
</svg>
