<?xml version="1.0" encoding="utf-8"?>
<!-- Generator: Adobe Illustrator 23.0.1, SVG Export Plug-In . SVG Version: 6.00 Build 0)  -->
<svg version="1.1" id="Capa_1" xmlns="http://www.w3.org/2000/svg" xmlns:xlink="http://www.w3.org/1999/xlink" x="0px" y="0px"
	 viewBox="0 0 31.5 27" style="enable-background:new 0 0 31.5 27;" xml:space="preserve">
<style type="text/css">
	.st0{fill:#3A79F3;}
</style>
<path class="st0" d="M29.1,0H2.4C1.1,0,0,1.1,0,2.4v22.1C0,25.9,1.1,27,2.4,27h26.6c1.4,0,2.4-1.1,2.4-2.4V2.4
	C31.5,1.1,30.4,0,29.1,0z M28.9,24.8h-7.6h-6.8H3c-1,0-1.5-1.2-0.8-1.9l9.1-9.1c0.4-0.4,1.1-0.4,1.5,0l5.3,5.3l2.9-2.9
	c0.3-0.3,0.9-0.3,1.2,0l7.2,7.2C30.1,23.8,29.7,24.8,28.9,24.8z"/>
</svg>
