<?xml version="1.0" encoding="utf-8"?>
<!-- Generator: Adobe Illustrator 23.0.1, SVG Export Plug-In . SVG Version: 6.00 Build 0)  -->
<svg version="1.1" id="Capa_1" xmlns="http://www.w3.org/2000/svg" xmlns:xlink="http://www.w3.org/1999/xlink" x="0px" y="0px"
	 viewBox="0 0 28 28" style="enable-background:new 0 0 28 28;" xml:space="preserve">
<style type="text/css">
	.st0{fill:#7063F1;}
</style>
<g>
	<g>
		<path class="st0" d="M14,28C6.3,28,0,21.7,0,14S6.3,0,14,0s14,6.3,14,14S21.7,28,14,28z M14,2C7.4,2,2,7.4,2,14s5.4,12,12,12
			s12-5.4,12-12S20.6,2,14,2z"/>
	</g>
	<path class="st0" d="M19.6,6l-0.9-0.6c-0.6-0.4-1.5-0.2-1.9,0.4L8.8,18.2c0,0,0,0.1-0.1,0.1l-0.8,4c0,0.2,0,0.3,0.2,0.4
		c0.1,0.1,0.3,0.1,0.4,0l3.3-2.3c0,0,0.1-0.1,0.1-0.1L20,7.9C20.4,7.2,20.2,6.4,19.6,6z M18.3,6l0.9,0.6c0.3,0.2,0.4,0.6,0.2,0.8
		l-0.7,1.1l-1.9-1.2l0.7-1.1C17.7,5.9,18,5.9,18.3,6z M9.8,18l6.6-10.1l1.9,1.2l-6.6,10.1L9.8,18z M8.8,21.5l0.6-2.9l1.8,1.2
		L8.8,21.5z"/>
</g>
</svg>
