<?xml version="1.0" encoding="utf-8"?>
<!-- Generator: Adobe Illustrator 23.0.0, SVG Export Plug-In . SVG Version: 6.00 Build 0)  -->
<svg version="1.1" id="Capa_1" xmlns="http://www.w3.org/2000/svg" xmlns:xlink="http://www.w3.org/1999/xlink" x="0px" y="0px"
	 viewBox="0 0 458.4 151.9" style="enable-background:new 0 0 458.4 151.9;" xml:space="preserve">
<style type="text/css">
	.st0{fill:#FF2433;}
	.st1{fill:#FFFFFF;}
</style>
<path class="st0" d="M429,151.9H29.4C13.2,151.9,0,138.8,0,122.5V29.4C0,13.2,13.2,0,29.4,0H429c16.2,0,29.4,13.2,29.4,29.4v93.1
	C458.4,138.8,445.2,151.9,429,151.9z"/>
<path class="st1" d="M271.6,41h-84.8c-4.7,0-8.6,3.9-8.6,8.6v52.8c0,4.7,3.9,8.6,8.6,8.6h84.8c4.7,0,8.6-3.9,8.6-8.6V49.6
	C280.2,44.8,276.3,41,271.6,41z M265.9,48l-36.2,23.3l-36-23.3H265.9z M271.6,104h-84.8c-0.9,0-1.6-0.7-1.6-1.6V50.8l42.6,27.6
	c0.6,0.4,1.2,0.6,1.9,0.6c0.7,0,1.3-0.2,1.9-0.6l41.6-26.8v50.8C273.2,103.2,272.5,104,271.6,104z"/>
</svg>
