<svg xmlns="http://www.w3.org/2000/svg" viewBox="0 0 152.51 113.11"><defs><style>.cls-1{fill:#fff;}</style></defs><title>Ico_Teclado_borrar anterior</title><g id="Capa_2" data-name="Capa 2"><g id="Capa_1-2" data-name="Capa 1"><path class="cls-1" d="M139.67,0H59.21a12.83,12.83,0,0,0-9.07,3.76L3.76,50.14a12.83,12.83,0,0,0,0,18.15l41.07,41.07a12.83,12.83,0,0,0,9.07,3.76h85.78a12.83,12.83,0,0,0,12.83-12.83V12.83A12.83,12.83,0,0,0,139.67,0ZM115.9,100,103,76.57c-2.25-4.24-4.64-8.62-7.43-13.92h-.53c-2.52,5.3-4.64,9.68-6.9,13.92L75.59,100H64.05l25.33-45-23.74-42h12.2L89.78,35.33c2.12,4,4,7.56,6.76,12.6h.53c2.39-5,4-8.62,6.1-12.6l11.54-22.28h11.67l-23.6,42.57L128.1,100Z"/></g></g></svg>