<?xml version="1.0" encoding="utf-8"?>
<!-- Generator: Adobe Illustrator 23.0.0, SVG Export Plug-In . SVG Version: 6.00 Build 0)  -->
<svg version="1.1" id="Capa_1" xmlns="http://www.w3.org/2000/svg" xmlns:xlink="http://www.w3.org/1999/xlink" x="0px" y="0px"
	 viewBox="0 0 433.45 240" style="enable-background:new 0 0 433.45 240;" xml:space="preserve">
<style type="text/css">
	.st0{fill:#FFFFFF;}
	.st1{fill:url(#SVGID_1_);}
	.st2{fill:none;stroke:url(#SVGID_2_);stroke-width:16;stroke-linecap:round;stroke-miterlimit:10;}
	
		.st3{fill:none;stroke:url(#SVGID_3_);stroke-width:16;stroke-linecap:round;stroke-miterlimit:10;stroke-dasharray:0,2.8237,23.0881,0;}
	.st4{fill:none;stroke:url(#SVGID_4_);stroke-width:16;stroke-linecap:round;stroke-miterlimit:10;}
	.st5{fill:none;stroke:url(#SVGID_5_);stroke-width:16;stroke-linecap:round;stroke-miterlimit:10;}
	
		.st6{fill:none;stroke:url(#SVGID_6_);stroke-width:16;stroke-linecap:round;stroke-miterlimit:10;stroke-dasharray:0,2.8237,23.0881,0;}
	.st7{fill:none;stroke:url(#SVGID_7_);stroke-width:16;stroke-linecap:round;stroke-miterlimit:10;}
	.st8{fill:none;stroke:url(#SVGID_8_);stroke-width:16;stroke-linecap:round;stroke-miterlimit:10;}
	
		.st9{fill:none;stroke:url(#SVGID_9_);stroke-width:16;stroke-linecap:round;stroke-miterlimit:10;stroke-dasharray:0,2.8237,23.0881,0;}
	.st10{fill:none;stroke:url(#SVGID_10_);stroke-width:16;stroke-linecap:round;stroke-miterlimit:10;}
</style>
<g>
	<g>
		<g>
			<image style="overflow:visible;" width="334" height="240" xlink:href="B08284B0.png"  transform="matrix(1 0 0 1 99.449 0)">
			</image>
		</g>
		<path class="st0" d="M378.61,203.43H153.87c-9.88,0-17.89-8.01-17.89-17.89V54.39c0-9.88,8.01-17.89,17.89-17.89h224.74
			c9.88,0,17.89,8.01,17.89,17.89v131.15C396.5,195.42,388.49,203.43,378.61,203.43z"/>
		<linearGradient id="SVGID_1_" gradientUnits="userSpaceOnUse" x1="164.6189" y1="221.5831" x2="367.8594" y2="18.3426">
			<stop  offset="0" style="stop-color:#FF6567"/>
			<stop  offset="1" style="stop-color:#FFA04E"/>
		</linearGradient>
		<path class="st1" d="M378.61,36.5H153.87c-9.88,0-17.89,8.01-17.89,17.89v131.15c0,9.88,8.01,17.89,17.89,17.89h224.74
			c9.88,0,17.89-8.01,17.89-17.89V54.39C396.5,44.51,388.49,36.5,378.61,36.5z M361.26,52.5l-94.82,63.89L168.28,52.5H361.26z
			 M378.61,187.43H153.87c-1.04,0-1.89-0.85-1.89-1.89V60.99l110.17,71.7c1.33,0.86,2.85,1.29,4.36,1.29c1.56,0,3.12-0.46,4.47-1.37
			L380.5,58.83v126.7C380.5,186.58,379.65,187.43,378.61,187.43z"/>
	</g>
	<g>
		<g>
			<linearGradient id="SVGID_2_" gradientUnits="userSpaceOnUse" x1="62.2181" y1="113.0319" x2="106.5318" y2="68.7182">
				<stop  offset="0" style="stop-color:#7063F1"/>
				<stop  offset="1" style="stop-color:#3A79F3"/>
			</linearGradient>
			<line class="st2" x1="103" y1="76.5" x2="94.5" y2="76.5"/>
			<linearGradient id="SVGID_3_" gradientUnits="userSpaceOnUse" x1="42.0711" y1="92.8848" x2="86.3848" y2="48.5711">
				<stop  offset="0" style="stop-color:#7063F1"/>
				<stop  offset="1" style="stop-color:#3A79F3"/>
			</linearGradient>
			<line class="st3" x1="71.41" y1="76.5" x2="45.5" y2="76.5"/>
			<linearGradient id="SVGID_4_" gradientUnits="userSpaceOnUse" x1="33.4681" y1="84.2819" x2="77.7819" y2="39.9681">
				<stop  offset="0" style="stop-color:#7063F1"/>
				<stop  offset="1" style="stop-color:#3A79F3"/>
			</linearGradient>
			<line class="st4" x1="45.5" y1="76.5" x2="37" y2="76.5"/>
		</g>
	</g>
	<g>
		<g>
			<linearGradient id="SVGID_5_" gradientUnits="userSpaceOnUse" x1="62.2181" y1="192.0319" x2="106.5318" y2="147.7182">
				<stop  offset="0" style="stop-color:#7063F1"/>
				<stop  offset="1" style="stop-color:#3A79F3"/>
			</linearGradient>
			<line class="st5" x1="103" y1="155.5" x2="94.5" y2="155.5"/>
			<linearGradient id="SVGID_6_" gradientUnits="userSpaceOnUse" x1="42.0711" y1="171.8848" x2="86.3848" y2="127.5711">
				<stop  offset="0" style="stop-color:#7063F1"/>
				<stop  offset="1" style="stop-color:#3A79F3"/>
			</linearGradient>
			<line class="st6" x1="71.41" y1="155.5" x2="45.5" y2="155.5"/>
			<linearGradient id="SVGID_7_" gradientUnits="userSpaceOnUse" x1="33.4681" y1="163.2819" x2="77.7819" y2="118.9681">
				<stop  offset="0" style="stop-color:#7063F1"/>
				<stop  offset="1" style="stop-color:#3A79F3"/>
			</linearGradient>
			<line class="st7" x1="45.5" y1="155.5" x2="37" y2="155.5"/>
		</g>
	</g>
	<g>
		<g>
			<linearGradient id="SVGID_8_" gradientUnits="userSpaceOnUse" x1="33.2181" y1="152.5319" x2="77.5318" y2="108.2182">
				<stop  offset="0" style="stop-color:#7063F1"/>
				<stop  offset="1" style="stop-color:#3A79F3"/>
			</linearGradient>
			<line class="st8" x1="74" y1="116" x2="65.5" y2="116"/>
			<linearGradient id="SVGID_9_" gradientUnits="userSpaceOnUse" x1="13.0711" y1="132.3848" x2="57.3848" y2="88.0711">
				<stop  offset="0" style="stop-color:#7063F1"/>
				<stop  offset="1" style="stop-color:#3A79F3"/>
			</linearGradient>
			<line class="st9" x1="42.41" y1="116" x2="16.5" y2="116"/>
			<linearGradient id="SVGID_10_" gradientUnits="userSpaceOnUse" x1="4.4681" y1="123.7819" x2="48.7819" y2="79.4681">
				<stop  offset="0" style="stop-color:#7063F1"/>
				<stop  offset="1" style="stop-color:#3A79F3"/>
			</linearGradient>
			<line class="st10" x1="16.5" y1="116" x2="8" y2="116"/>
		</g>
	</g>
</g>
</svg>
