<?xml version="1.0" encoding="utf-8"?>
<!-- Generator: Adobe Illustrator 23.0.1, SVG Export Plug-In . SVG Version: 6.00 Build 0)  -->
<svg version="1.1" id="Capa_1" xmlns="http://www.w3.org/2000/svg" xmlns:xlink="http://www.w3.org/1999/xlink" x="0px" y="0px"
	 viewBox="0 0 32 32" style="enable-background:new 0 0 32 32;" xml:space="preserve">
<style type="text/css">
	.st0{fill:none;stroke:#7063F1;stroke-width:2;stroke-linejoin:round;stroke-miterlimit:10;}
	.st1{fill:#7063F1;}
</style>
<g>
	<path class="st0" d="M24.8,31H7.2C3.8,31,1,28.2,1,24.8V7.2C1,3.8,3.8,1,7.2,1h17.7C28.2,1,31,3.8,31,7.2v17.7
		C31,28.2,28.2,31,24.8,31z"/>
	<g>
		<g>
			<path class="st1" d="M16.1,8.4c2.7,0.1,4.9,2.3,4.9,5c0,2.8-2.2,5-5,5c0,0-0.1,0-0.1,0v2.6c0,1.4-1.1,2.5-2.5,2.5
				S11,22.5,11,21.1V10.9c0-1.4,1.1-2.5,2.5-2.5C14.1,8.4,16.1,8.4,16.1,8.4 M13.4,12.3c0.3,0,0.5-0.2,0.7-0.4l3.5,1.7
				c0,0.1-0.1,0.2-0.1,0.3c0,0.1,0,0.2,0.1,0.3l-4.4,2.4c-0.2-0.2-0.4-0.4-0.7-0.4c-0.5,0-0.9,0.4-0.9,0.9c0,0.5,0.4,0.9,0.9,0.9
				s0.9-0.4,0.9-0.9c0-0.1,0-0.2-0.1-0.3l4.4-2.4c0.1,0.2,0.4,0.3,0.6,0.3c0.4,0,0.8-0.4,0.8-0.8s-0.4-0.8-0.8-0.8
				c-0.3,0-0.5,0.1-0.6,0.4l-3.5-1.7c0-0.1,0-0.2,0-0.2c0-0.4-0.4-0.8-0.8-0.8s-0.8,0.4-0.8,0.8S12.9,12.3,13.4,12.3 M16.2,7.4
				L16.2,7.4h-2.7C11.5,7.4,10,9,10,10.9v10.2c0,1.9,1.6,3.5,3.5,3.5s3.5-1.6,3.5-3.5v-1.7c2.9-0.4,5.2-2.9,5.2-6
				C22,10.1,19.5,7.5,16.2,7.4L16.2,7.4L16.2,7.4z"/>
		</g>
	</g>
</g>
</svg>
