<?xml version="1.0" encoding="utf-8"?>
<!-- Generator: Adobe Illustrator 23.0.1, SVG Export Plug-In . SVG Version: 6.00 Build 0)  -->
<svg version="1.1" id="Capa_1" xmlns="http://www.w3.org/2000/svg" xmlns:xlink="http://www.w3.org/1999/xlink" x="0px" y="0px"
	 viewBox="0 0 28 28" style="enable-background:new 0 0 28 28;" xml:space="preserve">
<style type="text/css">
	.st0{fill:#3A79F3;}
</style>
<g>
	<g>
		<path class="st0" d="M14,28C6.3,28,0,21.7,0,14S6.3,0,14,0s14,6.3,14,14S21.7,28,14,28z M14,2C7.4,2,2,7.4,2,14s5.4,12,12,12
			s12-5.4,12-12S20.6,2,14,2z"/>
	</g>
	<g>
		<g>
			<path class="st0" d="M12.9,8.4c-0.2-0.2-0.3-0.5-0.3-0.9V7.1c0-0.4,0.1-0.7,0.3-0.9C13.2,6.1,13.5,6,14,6c0.5,0,0.9,0.1,1.1,0.2
				c0.2,0.2,0.3,0.5,0.3,0.9v0.4c0,0.4-0.1,0.7-0.3,0.9c-0.2,0.2-0.6,0.2-1.1,0.2C13.5,8.6,13.1,8.6,12.9,8.4z M15,21.6
				c-0.3,0.3-0.6,0.4-1,0.4s-0.7-0.1-1-0.4c-0.3-0.3-0.4-0.6-0.4-1v-9.2c0-0.4,0.1-0.7,0.4-1c0.3-0.3,0.6-0.4,1-0.4s0.7,0.1,1,0.4
				c0.3,0.3,0.4,0.6,0.4,1v9.2C15.3,21,15.2,21.4,15,21.6z"/>
		</g>
	</g>
</g>
</svg>
