<?xml version="1.0" encoding="utf-8"?>
<!-- Generator: Adobe Illustrator 23.0.1, SVG Export Plug-In . SVG Version: 6.00 Build 0)  -->
<svg version="1.1" id="Capa_1" xmlns="http://www.w3.org/2000/svg" xmlns:xlink="http://www.w3.org/1999/xlink" x="0px" y="0px"
	 viewBox="0 0 42 32.7" style="enable-background:new 0 0 42 32.7;" xml:space="preserve">
<style type="text/css">
	.st0{fill:#7063F1;}
</style>
<g>
	<g>
		<path class="st0" d="M37.4,24.4H4.6c-2.5,0-4.6-2.1-4.6-4.6V4.6C0,2.1,2.1,0,4.6,0h32.8C39.9,0,42,2.1,42,4.6v15.2
			C42,22.3,39.9,24.4,37.4,24.4z M4.6,2C3.2,2,2,3.2,2,4.6v15.2c0,1.4,1.2,2.6,2.6,2.6h32.8c1.4,0,2.6-1.2,2.6-2.6V4.6
			C40,3.2,38.8,2,37.4,2H4.6z"/>
	</g>
	<g>
		<path class="st0" d="M29.5,32.7h-17c-0.6,0-1-0.4-1-1s0.4-1,1-1h17c0.6,0,1,0.4,1,1S30.1,32.7,29.5,32.7z"/>
	</g>
	<g>
		<path class="st0" d="M40.3,18.7h-39c-0.6,0-1-0.4-1-1s0.4-1,1-1h39c0.6,0,1,0.4,1,1S40.9,18.7,40.3,18.7z"/>
	</g>
	<g>
		<path class="st0" d="M21,32.7c-0.6,0-1-0.4-1-1v-8c0-0.6,0.4-1,1-1s1,0.4,1,1v8C22,32.2,21.6,32.7,21,32.7z"/>
	</g>
</g>
</svg>
