<?xml version="1.0" encoding="utf-8"?>
<!-- Generator: Adobe Illustrator 23.0.1, SVG Export Plug-In . SVG Version: 6.00 Build 0)  -->
<svg version="1.1" id="Capa_1" xmlns="http://www.w3.org/2000/svg" xmlns:xlink="http://www.w3.org/1999/xlink" x="0px" y="0px"
	 viewBox="0 0 201.6 171.7" style="enable-background:new 0 0 201.6 171.7;" xml:space="preserve">
<style type="text/css">
	.st0{fill:#FFFFFF;}
</style>
<path class="st0" d="M192.6,68.3h-40.1V19.7c0-10.8-8.8-19.7-19.7-19.7H68.7C57.9,0,49.1,8.8,49.1,19.7v48.6H9
	c-5.9,0-10.2,6.1-8.7,12.3l20.1,83.9c1,4.3,4.6,7.3,8.7,7.3h143.3c4.1,0,7.7-3,8.7-7.3l20.1-83.9C202.8,74.3,198.5,68.3,192.6,68.3z
	 M61.5,19.7c0-4,3.2-7.2,7.2-7.2h64.1c4,0,7.2,3.2,7.2,7.2v48.6H61.5V19.7z"/>
</svg>
