<?xml version="1.0" encoding="utf-8"?>
<!-- Generator: Adobe Illustrator 23.0.1, SVG Export Plug-In . SVG Version: 6.00 Build 0)  -->
<svg version="1.1" id="Capa_1" xmlns="http://www.w3.org/2000/svg" xmlns:xlink="http://www.w3.org/1999/xlink" x="0px" y="0px"
	 viewBox="0 0 272.7 272.7" style="enable-background:new 0 0 272.7 272.7;" xml:space="preserve">
<style type="text/css">
	.st0{fill:#FFFFFF;}
</style>
<path class="st0" d="M267.5,253.7L182,168.2c14.5-17.6,23.2-40.1,23.2-64.7c0-56.2-45.6-101.8-101.8-101.8S1.6,47.3,1.6,103.5
	s45.6,101.8,101.8,101.8c24.6,0,47.1-8.7,64.7-23.2l85.5,85.5c1.9,1.9,4.4,2.9,7,2.9s5-1,7-2.9C271.3,263.7,271.3,257.5,267.5,253.7
	z M21.3,103.5c0-45.3,36.8-82.1,82.1-82.1s82.1,36.8,82.1,82.1c0,45.3-36.8,82.1-82.1,82.1S21.3,148.8,21.3,103.5z"/>
</svg>
