<?xml version="1.0" encoding="utf-8"?>
<!-- Generator: Adobe Illustrator 23.0.1, SVG Export Plug-In . SVG Version: 6.00 Build 0)  -->
<svg version="1.1" id="Capa_1" xmlns="http://www.w3.org/2000/svg" xmlns:xlink="http://www.w3.org/1999/xlink" x="0px" y="0px"
	 viewBox="0 0 25.3 26.5" style="enable-background:new 0 0 25.3 26.5;" xml:space="preserve">
<style type="text/css">
	.st0{fill:#7063F1;}
</style>
<g>
	<g>
		<path class="st0" d="M12,26.5H4.5C2,26.5,0,24.5,0,22V4.5C0,2,2,0,4.5,0H12c2.5,0,4.5,2,4.5,4.5v4.9c0,0.3-0.3,0.6-0.6,0.6
			c-0.3,0-0.6-0.3-0.6-0.6V4.5c0-1.8-1.5-3.3-3.3-3.3H4.5c-1.8,0-3.3,1.5-3.3,3.3V22c0,1.8,1.5,3.3,3.3,3.3H12
			c1.8,0,3.3-1.5,3.3-3.3v-4.9c0-0.3,0.3-0.6,0.6-0.6c0.3,0,0.6,0.3,0.6,0.6V22C16.5,24.5,14.5,26.5,12,26.5z"/>
	</g>
	<g>
		<path class="st0" d="M24.1,13.8H5.9c-0.3,0-0.6-0.3-0.6-0.6s0.3-0.6,0.6-0.6h18.3c0.3,0,0.6,0.3,0.6,0.6S24.5,13.8,24.1,13.8z"/>
	</g>
	<g>
		<path class="st0" d="M20.3,18.3c-0.2,0-0.3-0.1-0.4-0.2c-0.2-0.2-0.2-0.6,0-0.8l4-4l-3.7-3.7c-0.2-0.2-0.2-0.6,0-0.8
			c0.2-0.2,0.6-0.2,0.8,0l4.1,4.1c0.2,0.2,0.2,0.6,0,0.8l-4.4,4.4C20.6,18.2,20.5,18.3,20.3,18.3z"/>
	</g>
</g>
</svg>
