<?xml version="1.0" encoding="utf-8"?>
<!-- Generator: Adobe Illustrator 23.0.1, SVG Export Plug-In . SVG Version: 6.00 Build 0)  -->
<svg version="1.1" id="Capa_1" xmlns="http://www.w3.org/2000/svg" xmlns:xlink="http://www.w3.org/1999/xlink" x="0px" y="0px"
	 viewBox="0 0 678 544.7" style="enable-background:new 0 0 678 544.7;" xml:space="preserve">
<style type="text/css">
	.st0{fill:url(#SVGID_1_);}
	.st1{fill:#C78759;}
	.st2{fill:#D49C6B;}
	.st3{fill:#454545;}
	.st4{opacity:0.34;fill:#B1815B;}
	.st5{opacity:0.21;fill:url(#SVGID_2_);}
	.st6{fill:url(#SVGID_3_);}
	.st7{fill:url(#SVGID_4_);}
	.st8{opacity:0.21;fill:url(#SVGID_5_);}
	.st9{fill:#3A79F3;}
	.st10{fill:#D1D1D1;}
	.st11{fill:#C65A5E;}
	.st12{fill:#E8E8E8;}
	.st13{fill:#E16364;}
	.st14{fill:#D1844A;}
	.st15{fill:#E99854;}
	.st16{fill:#AE4C51;}
	.st17{opacity:0.21;fill:url(#SVGID_6_);}
	.st18{opacity:0.21;fill:url(#SVGID_7_);}
	.st19{opacity:0.21;fill:url(#SVGID_8_);}
	.st20{opacity:0.21;fill:url(#SVGID_9_);}
	.st21{opacity:0.19;fill:url(#SVGID_10_);}
</style>
<g>
	<g>
		<g>
			<g>
				
					<linearGradient id="SVGID_1_" gradientUnits="userSpaceOnUse" x1="43.7809" y1="285.2042" x2="672.291" y2="285.2042" gradientTransform="matrix(0.6584 -0.7527 0.7527 0.6584 -63.765 359.1497)">
					<stop  offset="0" style="stop-color:#7063F1"/>
					<stop  offset="1" style="stop-color:#3A79F3"/>
				</linearGradient>
				<path class="st0" d="M20,370.4C4.5,347.1-5,317.7,2.8,290.7c9.1-31.1,38.8-51.8,69-63.5c65.7-25.7,141-21.5,204.4-52.5
					c32-15.6,59.2-39.4,86.6-62.3c35.6-29.8,72.1-58.6,109.5-86.2c9.7-7.2,19.8-14.4,31.5-17.3c9-2.2,18.5-1.7,27.6,0
					c47.2,8.8,83.6,47.5,106.8,89.6c48.3,87.7,51.9,197.4,14.5,290.3c-8.7,21.7-19.7,42.7-35.1,60.2
					c-43.3,49.4-113.4,63.4-178.1,74.5c-40.5,7-81.4,14-122.4,11.8C261.1,532.4,53.7,420.9,20,370.4z"/>
			</g>
		</g>
	</g>
	<g>
		<g>
			<polygon class="st1" points="591.9,301.2 591.9,381.7 521.6,422 521.6,342.4 			"/>
			<polygon class="st2" points="451.3,301.2 451.3,381.7 521.6,422 521.6,342.4 			"/>
			<polygon class="st2" points="521.6,261.8 451.3,301.2 521.6,343.3 591.9,301.2 			"/>
		</g>
		<g>
			<polygon class="st1" points="339.9,156.9 199.4,237.5 199.4,399.5 339.9,319 			"/>
			<polygon class="st2" points="339.9,157.8 480.4,238.4 480.4,400.5 339.9,319.9 			"/>
		</g>
		<g>
			<g>
				<g>
					<path class="st3" d="M342.3,336.8h-4.7V14.5l4.7,0c0,0.2,0.1,20.2,8.6,44.7c7.8,22.5,24.4,53.7,59.6,74.1l0,0
						c-1.3,2.2-4.2,3-6.4,1.6c-33.7-21.1-49.9-51.9-57.6-74.3c-1.7-4.8-3-9.5-4.1-13.8V336.8z"/>
				</g>
				<g>
					<path class="st3" d="M341.9,336.8h-4.7v-290c-1.1,4.4-2.4,9-4.1,13.8c-7.7,22.5-24,53.2-57.6,74.3c-2.2,1.4-5.1,0.6-6.4-1.6
						l0,0c35.2-20.4,51.8-51.7,59.6-74.3c8.4-24.5,8.5-44.4,8.5-44.6h4.7V336.8z"/>
				</g>
			</g>
			<g>
				<circle class="st3" cx="339.8" cy="15" r="15"/>
			</g>
		</g>
		<g>
			<polygon class="st2" points="199.4,237.5 339.9,318 339.9,480.1 199.4,399.5 			"/>
			<polygon class="st1" points="480.4,237.5 339.9,318 339.9,480.1 480.4,399.5 			"/>
			<polygon class="st4" points="199.4,238.4 339.9,318 310.8,388.3 199.4,324.6 			"/>
			<polygon class="st2" points="199.4,237.5 339.9,318 305.2,379.9 164.7,298.4 			"/>
			<polygon class="st4" points="480.4,238.4 339.9,318 368.9,388.3 480.4,324.6 			"/>
			<polygon class="st1" points="480.4,237.5 339.9,318 374.5,379.9 515,298.4 			"/>
		</g>
		
			<linearGradient id="SVGID_2_" gradientUnits="userSpaceOnUse" x1="-289.202" y1="419.9431" x2="-220.5425" y2="296.0781" gradientTransform="matrix(-1 0 0 1 155.8027 0)">
			<stop  offset="0" style="stop-color:#454545"/>
			<stop  offset="1" style="stop-color:#454545;stop-opacity:0"/>
		</linearGradient>
		<polygon class="st5" points="515,298.4 480.4,238.4 339.9,321.3 339.9,478.2 480.4,397.9 480.4,317.9 		"/>
		<g>
			<g>
				<linearGradient id="SVGID_3_" gradientUnits="userSpaceOnUse" x1="374.5316" y1="279.6292" x2="199.3562" y2="279.6292">
					<stop  offset="0" style="stop-color:#E99854"/>
					<stop  offset="1" style="stop-color:#E16364"/>
				</linearGradient>
				<path class="st6" d="M339.7,211l-32.6-26c0,18.6-6.8,26.5-21.5,16.2c-14.6-10.3-26.3-33.2-26.3-51.8l-29-0.9h-7.5l-23.4,49.6
					l2.8,26.2h0c4.8,0,9.5-1.7,13.2-4.9l14.4-12.5l12.7,121.4l90.9,82.4l0,0c4.5,0.2,8.2-3.4,8.2-7.8c4-36.2-8.2-84,0.2-138.3
					l11.2,36.5h0.2c0.4,0,0.8,0,1.2,0c5.9-0.3,11.5-2.9,15.8-7l4.4-4.2L339.7,211z"/>
			</g>
			<g>
				<polygon class="st3" points="320.9,213.7 282.7,165.5 239.8,155.4 241.3,149 286.5,159.6 326.1,209.7 				"/>
			</g>
			<g>
				<path class="st3" d="M283.2,165.3c-0.4,0-0.9-0.1-1.3-0.3c-1.7-0.7-2.4-2.7-1.7-4.3c7-15.9,14-35.2,13.3-39.2
					c-1.4-1.9-2.3-2.3-2.5-2.2c-1.5,0.3-4.3,5.1-5.5,9.9c-0.5,1.7-2.3,2.8-4,2.3c-1.7-0.5-2.8-2.3-2.3-4c0.9-3.1,4.2-13.5,10.8-14.6
					c3.3-0.6,6.4,1.2,9.2,5.2c1.5,2.2,2.5,6.1-4.9,25.9c-3.7,9.9-7.9,19.3-7.9,19.4C285.7,164.6,284.5,165.3,283.2,165.3z
					 M293.4,121.4L293.4,121.4L293.4,121.4z"/>
			</g>
			<g>
				<linearGradient id="SVGID_4_" gradientUnits="userSpaceOnUse" x1="234.1444" y1="360.2597" x2="324.2337" y2="183.4496">
					<stop  offset="0" style="stop-color:#FFA04E"/>
					<stop  offset="1" style="stop-color:#FF6567"/>
				</linearGradient>
				<path class="st7" d="M339.9,211.2l-33.7-27.2c0,18.6-13.4,27.4-28,17.1c-14.6-10.3-20.7-33.2-20.7-51.8
					c-13.2-0.3-26.4-0.6-35.1-1.6l0-0.1c-7,22.4-21.1,23.3-30.4,50.5l10.3,26.2c7.5-13.1,14.1-9.4,20-17.4v125.3
					c7.5,15.2,19,26.1,36.4,30.9c11.7,3.2,22.9,8,32.9,14.8c13.9,9.5,28.3,21.7,42.5,33.2c7.7-45.3-7.3-95.9,0.2-146.5l18.7,36.5
					c1.7-5.4,7.1-9.6,21.5-11.2L339.9,211.2z"/>
			</g>
		</g>
		<g>
			<rect x="406.5" y="133.5" width="1.6" height="66.5"/>
		</g>
		
			<linearGradient id="SVGID_5_" gradientUnits="userSpaceOnUse" x1="66.8235" y1="392.9815" x2="101.3162" y2="330.7551" gradientTransform="matrix(-1 0 0 1 640.8027 0)">
			<stop  offset="0" style="stop-color:#454545"/>
			<stop  offset="1" style="stop-color:#454545;stop-opacity:0"/>
		</linearGradient>
		<polygon class="st8" points="591.9,319 591.9,301.7 521.6,343.3 521.6,422 591.9,381.7 		"/>
		<g>
			
				<ellipse transform="matrix(0.9033 -0.4291 0.4291 0.9033 -62.34 182.4889)" class="st9" cx="373.6" cy="229.5" rx="5.5" ry="8.6"/>
			<g>
				<g>
					<path class="st10" d="M392.8,238.8c0,0-7.5,2.1-14.7-0.7c7.9,4.8,17.5,2.1,17.5,2.1c29.6-13,46.3-32.4,55.5-48
						c-1.1-0.1-2.2-0.3-3.2-0.6C438.5,207,421.9,225.9,392.8,238.8z"/>
					<path class="st11" d="M458.5,167c-1,3.7-3.7,12.8-10.2,23.8c-0.2,0.3-0.3,0.5-0.5,0.8c1,0.3,2.1,0.5,3.2,0.6
						c8.5-14.4,10.6-25.6,10.6-25.6C460.6,166.7,459.5,166.8,458.5,167z"/>
					<path class="st12" d="M392.8,238.8c29.1-12.8,45.7-31.7,55-47.2c-1.5-0.4-2.8-1-4.1-1.8c-6.1-2.3-10.4-8.3-10.4-15.2
						c0-0.6,0-1.1,0.1-1.7C418.5,177.6,408,183,408,183s-44.3,21.1-38.8,42.1c1.8,6.7,5.1,10.7,8.8,12.9
						C385.3,240.9,392.8,238.8,392.8,238.8z"/>
					<path class="st13" d="M447.8,191.6c0.2-0.3,0.3-0.5,0.5-0.8c-1.6-0.1-3.1-0.5-4.6-1C445,190.5,446.3,191.1,447.8,191.6z"/>
					<path class="st12" d="M436,175.9c0-1.4,0.2-2.8,0.5-4.1c-1.1,0.3-2.1,0.7-3.2,1c-0.1,0.6-0.1,1.1-0.1,1.7
						c0,6.9,4.3,12.8,10.4,15.2C439.1,186.9,436,181.8,436,175.9z"/>
					<path class="st13" d="M436,175.9c0,5.8,3.1,10.9,7.7,13.8c1.4,0.6,3,0.9,4.6,1c6.5-11,9.2-20.1,10.2-23.8
						c-7.7,1.1-15.2,2.9-21.9,4.9C436.2,173.2,436,174.5,436,175.9z"/>
				</g>
				<polygon class="st14" points="384.1,233.4 434.5,202.9 435.7,203.6 397.1,255.9 395.9,255.2 396.8,240.8 				"/>
				<polygon class="st15" points="382.9,232.7 434.5,202.9 395.9,255.2 395.5,240.1 				"/>
				<path class="st14" d="M434,205.3"/>
				<path class="st16" d="M389,200.7c-0.1-0.1-0.4-0.6-0.6-0.7c-0.6-0.2-1.7,0.6-3,1.4c-1.4,0.8-2.8,1.4-2.9,2.1
					c0,0.1,0.4,0.6,0.5,0.7c0.3,0.6,1.9,0.3,3.6-0.7C388.3,202.5,389.4,201.3,389,200.7z"/>
				<path class="st16" d="M398.5,194.5c-0.1-0.1-0.4-0.6-0.6-0.7c-0.6-0.2-1.7,0.6-3,1.4c-1.4,0.8-2.8,1.4-2.9,2.1
					c0,0.1,0.4,0.6,0.5,0.7c0.3,0.6,1.9,0.3,3.6-0.7C397.8,196.3,398.9,195,398.5,194.5z"/>
				<path class="st16" d="M408.6,188.7c-0.1-0.1-0.4-0.8-0.6-0.9c-0.6-0.2-1.7,0.8-3,1.5c-1.4,0.8-2.8,1.4-2.9,2.1
					c0,0.1,0.4,0.6,0.5,0.7c0.3,0.6,1.9,0.3,3.6-0.7C407.8,190.6,408.9,189.3,408.6,188.7z"/>
				<ellipse transform="matrix(0.866 -0.5 0.5 0.866 -49.213 219.7813)" class="st11" cx="385.5" cy="201.7" rx="3.5" ry="1.2"/>
				<ellipse transform="matrix(0.866 -0.5 0.5 0.866 -44.8231 223.7055)" class="st11" cx="395" cy="195.5" rx="3.5" ry="1.2"/>
				<ellipse transform="matrix(0.866 -0.5 0.5 0.866 -40.6232 227.9587)" class="st11" cx="405.1" cy="189.8" rx="3.5" ry="1.2"/>
			</g>
		</g>
		<g>
			<polygon class="st1" points="620.9,382.7 620.9,463.2 550.6,503.5 550.6,423.9 			"/>
			<polygon class="st2" points="480.4,382.7 480.4,463.2 550.6,503.5 550.6,423.9 			"/>
			<polygon class="st2" points="550.6,343.3 480.4,382.7 550.6,424.8 620.9,382.7 			"/>
		</g>
		<linearGradient id="SVGID_6_" gradientUnits="userSpaceOnUse" x1="498.041" y1="474.8909" x2="532.7614" y2="412.2538">
			<stop  offset="0" style="stop-color:#454545"/>
			<stop  offset="1" style="stop-color:#454545;stop-opacity:0"/>
		</linearGradient>
		<polygon class="st17" points="480.4,400.5 480.4,383.2 550.6,424.8 550.6,503.5 480.4,465.1 		"/>
		<g>
			<polygon class="st1" points="521.6,423.9 521.6,504.4 451.3,544.7 451.3,465.1 			"/>
			<polygon class="st2" points="381.1,423.9 381.1,504.4 451.3,544.7 451.3,465.1 			"/>
			<polygon class="st2" points="451.3,384.5 381.1,423.9 451.3,466 521.6,423.9 			"/>
		</g>
		<linearGradient id="SVGID_7_" gradientUnits="userSpaceOnUse" x1="398.9714" y1="515.6979" x2="433.4641" y2="453.4716">
			<stop  offset="0" style="stop-color:#454545"/>
			<stop  offset="1" style="stop-color:#454545;stop-opacity:0"/>
		</linearGradient>
		<polygon class="st18" points="381.1,441.7 381.1,424.4 451.3,466 451.3,544.7 381.1,504.4 		"/>
		
			<linearGradient id="SVGID_8_" gradientUnits="userSpaceOnUse" x1="137.0811" y1="515.6979" x2="171.5737" y2="453.4716" gradientTransform="matrix(-1 0 0 1 640.8027 0)">
			<stop  offset="0" style="stop-color:#454545"/>
			<stop  offset="1" style="stop-color:#454545;stop-opacity:0"/>
		</linearGradient>
		<polygon class="st19" points="521.6,441.7 521.6,424.4 451.3,466 451.3,544.7 521.6,504.4 		"/>
		
			<linearGradient id="SVGID_9_" gradientUnits="userSpaceOnUse" x1="37.7838" y1="474.4802" x2="72.2764" y2="412.2538" gradientTransform="matrix(-1 0 0 1 640.8027 0)">
			<stop  offset="0" style="stop-color:#454545"/>
			<stop  offset="1" style="stop-color:#454545;stop-opacity:0"/>
		</linearGradient>
		<polygon class="st20" points="620.9,400.5 620.9,383.2 550.6,424.8 550.6,503.5 620.9,463.2 		"/>
		<linearGradient id="SVGID_10_" gradientUnits="userSpaceOnUse" x1="477.5022" y1="381.0706" x2="504.6714" y2="332.0559">
			<stop  offset="0" style="stop-color:#454545"/>
			<stop  offset="1" style="stop-color:#454545;stop-opacity:0"/>
		</linearGradient>
		<polygon class="st21" points="521.6,343.3 480.4,318.6 480.4,382.7 521.6,358.8 		"/>
	</g>
</g>
</svg>
