<?xml version="1.0" encoding="utf-8"?>
<!-- Generator: Adobe Illustrator 23.0.1, SVG Export Plug-In . SVG Version: 6.00 Build 0)  -->
<svg version="1.1" id="Capa_1" xmlns="http://www.w3.org/2000/svg" xmlns:xlink="http://www.w3.org/1999/xlink" x="0px" y="0px"
	 viewBox="0 0 25.7 25" style="enable-background:new 0 0 25.7 25;" xml:space="preserve">
<style type="text/css">
	.st0{fill:#7063F1;}
</style>
<g>
	<g>
		<path class="st0" d="M23.7,25h-3.3V15h-4.4v10H2c-1.1,0-2-0.9-2-2V5.8l0.9,1.9c0.5,1,1.5,1.7,2.6,1.7c1.1,0,2.1-0.6,2.6-1.6
			l0.4-0.9l0.4,0.9c0.5,1,1.5,1.6,2.6,1.6s2.1-0.6,2.6-1.6l0.4-0.9l0.4,0.9c0.5,1,1.5,1.6,2.6,1.6c1.1,0,2.1-0.6,2.6-1.6L19,6.8
			l0.4,0.9c0.5,1,1.5,1.6,2.6,1.6s2.1-0.6,2.6-1.7l0.9-1.9V23C25.7,24.1,24.8,25,23.7,25z M21.4,24h2.3c0.5,0,1-0.4,1-1V9.4
			c-0.7,0.6-1.6,1-2.6,1c-1.2,0-2.4-0.6-3.1-1.5c-0.7,0.9-1.9,1.5-3.1,1.5s-2.4-0.6-3.1-1.5c-0.7,0.9-1.9,1.5-3.1,1.5
			S7.4,9.8,6.7,8.9c-0.7,0.9-1.9,1.5-3.1,1.5c-1,0-1.9-0.4-2.6-1V23c0,0.5,0.4,1,1,1h13.1V14h6.4V24z M13.5,20H3.2v-6.7h10.3V20z
			 M4.2,19h8.3v-4.7H4.2V19z"/>
	</g>
	<g>
		<path class="st0" d="M22.1,10.4c-1.5,0-2.7-1-3.1-2.3c-0.4,1.3-1.6,2.3-3.1,2.3c-1.5,0-2.7-1-3.1-2.3c-0.4,1.3-1.6,2.3-3.1,2.3
			s-2.7-1-3.1-2.3C6.3,9.4,5,10.4,3.6,10.4c-1.6,0-2.9-1.1-3.2-2.6C0.2,7.8,0,7.6,0,7.3V2c0-1.1,0.9-2,2-2h21.8c1.1,0,2,0.9,2,2v5.3
			c0,0.3-0.2,0.5-0.4,0.5C25,9.3,23.7,10.4,22.1,10.4z M18.7,6.8h0.7c0.3,0,0.5,0.2,0.5,0.5c0.1,1.2,1,2.1,2.2,2.1
			c1.2,0,2.2-0.9,2.2-2.1c0-0.2,0.2-0.4,0.4-0.5V2c0-0.5-0.4-1-1-1H2C1.4,1,1,1.4,1,2v4.8c0.2,0.1,0.4,0.2,0.4,0.5
			c0.1,1.2,1,2.1,2.2,2.1s2.2-0.9,2.2-2.1c0-0.3,0.2-0.5,0.5-0.5H7c0.3,0,0.5,0.2,0.5,0.5c0.1,1.2,1,2.1,2.2,2.1s2.2-0.9,2.2-2.1
			c0-0.3,0.2-0.5,0.5-0.5h0.7c0.3,0,0.5,0.2,0.5,0.5c0.1,1.2,1,2.1,2.2,2.1s2.2-0.9,2.2-2.1C18.2,7,18.4,6.8,18.7,6.8z"/>
	</g>
</g>
</svg>
