<?xml version="1.0" encoding="utf-8"?>
<!-- Generator: Adobe Illustrator 23.0.1, SVG Export Plug-In . SVG Version: 6.00 Build 0)  -->
<svg version="1.1" id="Capa_1" xmlns="http://www.w3.org/2000/svg" xmlns:xlink="http://www.w3.org/1999/xlink" x="0px" y="0px"
	 viewBox="0 0 628.5 573.8" style="enable-background:new 0 0 628.5 573.8;" xml:space="preserve">
<style type="text/css">
	.st0{fill:url(#SVGID_1_);}
	.st1{fill:#F5F5E2;}
	.st2{fill:#7C7C7B;}
	.st3{opacity:5.000000e-02;fill:url(#SVGID_2_);}
	.st4{fill:#474747;}
	.st5{fill:#353535;}
	.st6{fill:#5E5E5E;}
	.st7{fill:#C7C7C7;}
	.st8{opacity:0.5;fill:url(#SVGID_3_);}
</style>
<g>
	<g>
		<g>
			
				<linearGradient id="SVGID_1_" gradientUnits="userSpaceOnUse" x1="-17.7215" y1="289.8005" x2="594.5759" y2="289.8005" gradientTransform="matrix(0.1708 0.9853 -0.9853 0.1708 561.4534 -66.1084)">
				<stop  offset="0" style="stop-color:#FF6567"/>
				<stop  offset="1" style="stop-color:#FFA046"/>
			</linearGradient>
			<path class="st0" d="M2.9,72.2c7.3-27.1,23.2-53.6,48.7-65.4c29.4-13.7,64.5-4.8,93.3,10.1c62.6,32.6,109,92,174.1,119.3
				c32.9,13.8,68.7,18.6,103.9,24.1c45.9,7.2,91.6,15.7,137,25.7c11.8,2.6,23.9,5.4,33.8,12.3c7.6,5.3,13.4,12.8,18.1,20.8
				c24.5,41.3,19.3,94.2,2.8,139.4c-34.2,94.1-114.4,169-208.9,202.1c-22,7.7-45.1,13.3-68.4,13.3c-65.7-0.1-122.3-43.6-173.3-85
				c-31.9-25.9-64.1-52-89.5-84.3C39.7,360.3-12.9,130.7,2.9,72.2z"/>
		</g>
	</g>
	<g>
		<g>
			<g>
				<g>
					<g>
						<path class="st1" d="M386.6,398.1v-266c0-15.1,7.9-29.1,20.8-36.8l0.6-0.4c13.7-8.3,24-8.4,33.6,4.5
							c-6.2-9.4-13.6-17.8-23.6-24.1L326,22.2c-12.9-7.5-28.8-7.7-42-0.7l0,0c-13.9,7.5-22.6,22.1-22.6,37.9v264L386.6,398.1z"/>
						<polygon class="st2" points="370.9,174.6 271.2,116.3 271.2,108.4 370.9,166.8 						"/>
						<polygon class="st2" points="370.9,246 271.2,187.6 271.2,179.7 370.9,238.1 						"/>
						<polygon class="st2" points="370.9,212.8 271.2,154.5 271.2,146.6 370.9,204.9 						"/>
					</g>
					<g>
						<polygon class="st2" points="343.2,274.9 363.7,286.8 363.7,266.2 343.2,254.4 						"/>
						<polygon class="st2" points="278.1,237.4 298.6,249.2 298.6,228.7 278.1,216.8 						"/>
						<path class="st2" d="M339.7,249l27.4,15.8v27.4l-27.4-15.8V249 M336.3,243.6v3.4v27.4v3.4l3.4,2l27.4,15.8l3.4,2v-3.4v-27.4
							v-3.4l-3.4-2l-27.4-15.8L336.3,243.6L336.3,243.6z"/>
						<polygon class="st2" points="278.1,301.7 298.6,313.6 298.6,293.1 278.1,281.2 						"/>
						<path class="st2" d="M274.7,275.8l27.4,15.8V319l-27.4-15.8V275.8 M271.2,270.4v3.4v27.4v3.4l3.4,2l27.4,15.8l3.4,2V321v-27.4
							v-3.4l-3.4-2l-27.4-15.8L271.2,270.4L271.2,270.4z"/>
						<polygon class="st2" points="328.8,289.9 363.7,310.1 363.7,302.5 328.8,282.4 						"/>
						<polygon class="st2" points="317.8,297.3 328.8,303.6 328.8,296.8 317.8,290.4 						"/>
						<polygon class="st2" points="304.1,275 315.1,281.3 315.1,274.5 304.1,268.1 						"/>
						<polygon class="st2" points="356.9,313.7 370.6,321.6 370.6,314 356.9,306.1 						"/>
						<polygon class="st2" points="337.7,302.6 351.4,310.5 351.4,303 337.7,295.1 						"/>
						<polygon class="st2" points="297.3,279.3 304.8,283.6 304.8,276.1 297.3,271.7 						"/>
						<polygon class="st2" points="328.8,312.5 336.3,316.9 336.3,309.3 328.8,305 						"/>
						<polygon class="st2" points="286.3,266.8 293.8,271.1 293.8,263.6 286.3,259.2 						"/>
						<polygon class="st2" points="336.3,324.4 343.8,328.8 343.8,321.2 336.3,316.9 						"/>
						<polygon class="st2" points="328.8,328.3 336.3,332.6 336.3,325.1 328.8,320.7 						"/>
						<polygon class="st2" points="313.7,319.6 321.2,323.9 321.2,308.2 313.7,303.8 						"/>
						<polygon class="st2" points="321.2,331.5 328.8,335.8 328.8,328.3 321.2,323.9 						"/>
						<polygon class="st2" points="352.1,333.5 359.6,337.8 359.6,330.3 352.1,326 						"/>
						<polygon class="st2" points="352.1,349.3 359.6,353.6 359.6,346.1 352.1,341.7 						"/>
						<polygon class="st2" points="344.5,321.6 352.1,326 352.1,318.4 344.5,314.1 						"/>
						<polygon class="st2" points="344.5,337.4 352.1,341.7 352.1,334.2 344.5,329.8 						"/>
						<polygon class="st2" points="315.1,238.8 328.8,246.8 328.8,239.2 315.1,231.3 						"/>
						<polygon class="st2" points="322.6,271.3 322.6,235.7 315.1,231.3 315.1,266.9 						"/>
						<polygon class="st2" points="271.2,264.2 284.9,272.1 284.9,258.4 271.2,250.5 						"/>
						<polygon class="st2" points="315.1,266.9 328.8,274.8 328.8,267.3 315.1,259.4 						"/>
						<path class="st2" d="M274.7,211.4l27.4,15.8v27.4l-27.4-15.8V211.4 M271.2,206v3.4v27.4v3.4l3.4,2l27.4,15.8l3.4,2v-3.4v-27.4
							v-3.4l-3.4-2L274.7,208L271.2,206L271.2,206z"/>
					</g>
				</g>
			</g>
			<g>
				<g>
					<linearGradient id="SVGID_2_" gradientUnits="userSpaceOnUse" x1="275.8773" y1="532.5851" x2="371.5857" y2="366.8133">
						<stop  offset="0" style="stop-color:#454545"/>
						<stop  offset="1" style="stop-color:#454545;stop-opacity:0"/>
					</linearGradient>
					<polygon class="st3" points="160.1,465.2 294.6,543.4 487.3,434.4 354.7,357.1 251,414.7 300.4,441.5 300.6,512.6 					"/>
					<path class="st4" d="M308.1,201.1l-112.2-64.6c-8.9-5.1-21.4-2.8-29.4,5c-3.7,2.6-6.3,6.8-6.3,12l0.4,302.5
						c0,6,3.2,11.6,8.4,14.6L279.5,535l1.4,1c0.2,0.1,0.4,0.1,0.7,0.2c6,3.2,12.8,2.2,17.7-1.3c9.7-3.8,17.3-11.9,17.3-20.1v-299
						C316.6,209.7,313.4,204.1,308.1,201.1z M300.6,512.6L166,435.9V179.1l134.6,78.5V512.6z"/>
					<g>
						<path class="st5" d="M216.7,481.6v-0.4c0-5.4,5.9-8.8,10.6-6.1h0c0.2,0.1,0.4,0.2,0.5,0.3c-0.5-0.3-0.9-0.6-1.4-0.9h0
							c-4.7-2.8-10.6,0.6-10.6,6.1v0.4c0,7.3,3.7,14,9.8,17.9C220.1,494.9,216.7,488.5,216.7,481.6z"/>
						<path class="st6" d="M226.2,499.2c4.7,2.9,10.7-0.5,10.7-6v-0.4c0-6.9-3.4-13.4-9-17.4c-0.2-0.1-0.4-0.2-0.5-0.3h0
							c-4.7-2.8-10.6,0.6-10.6,6.1v0.4c0,6.9,3.4,13.4,9,17.3c0.1,0,0.2,0.1,0.2,0.1L226.2,499.2z"/>
					</g>
					<g>
						<g>
							<path class="st7" d="M256,212.4c-0.2,0-0.3,0-0.5-0.1l-37.7-21.5c-0.5-0.3-0.7-0.9-0.4-1.4c0.3-0.5,0.9-0.7,1.4-0.4
								l37.7,21.5c0.5,0.3,0.7,0.9,0.4,1.4C256.7,212.2,256.3,212.4,256,212.4z"/>
						</g>
						<g>
							<path class="st7" d="M214.1,189.1c1.3,0,1.3-2,0-2C212.8,187,212.8,189.1,214.1,189.1L214.1,189.1z"/>
						</g>
					</g>
					<path class="st7" d="M309.3,267.4v33.8c0,0,1.2,2.4,5.3,0v-35C314.6,266.2,309.3,264.4,309.3,267.4z"/>
				</g>
			</g>
			<polygon class="st1" points="181.5,373.9 181.5,188.1 300.4,257.7 300.4,441.5 			"/>
			<g>
				<polygon class="st2" points="260.3,339.9 276.3,349.1 276.3,333.2 260.3,323.9 				"/>
				<polygon class="st2" points="209.7,310.7 225.7,319.9 225.7,303.9 209.7,294.7 				"/>
				<path class="st2" d="M257.7,319.7L279,332v21.3L257.7,341V319.7 M255,315.5v2.7v21.3v2.7l2.7,1.5L279,356l2.7,1.5v-2.7v-21.3
					v-2.7l-2.7-1.5l-21.3-12.3L255,315.5L255,315.5z"/>
				<polygon class="st2" points="209.7,360.8 225.7,370 225.7,354 209.7,344.8 				"/>
				<path class="st2" d="M207.1,340.6l21.3,12.3v21.3l-21.3-12.3V340.6 M204.4,336.4v2.7v21.3v2.7l2.7,1.5l21.3,12.3l2.7,1.5v-2.7
					v-21.3v-2.7l-2.7-1.5l-21.3-12.3L204.4,336.4L204.4,336.4z"/>
				<polygon class="st2" points="249.2,351.6 276.3,367.2 276.3,361.4 249.2,345.7 				"/>
				<polygon class="st2" points="240.6,357.3 249.2,362.2 249.2,356.9 240.6,352 				"/>
				<polygon class="st2" points="230,340 238.5,344.9 238.5,339.5 230,334.6 				"/>
				<polygon class="st2" points="271,370 281.6,376.2 281.6,370.3 271,364.2 				"/>
				<polygon class="st2" points="256.1,361.4 266.7,367.6 266.7,361.7 256.1,355.6 				"/>
				<polygon class="st2" points="224.7,343.3 230.5,346.7 230.5,340.8 224.7,337.4 				"/>
				<polygon class="st2" points="249.2,369.1 255,372.5 255,366.7 249.2,363.3 				"/>
				<polygon class="st2" points="216.1,333.6 222,336.9 222,331.1 216.1,327.7 				"/>
				<polygon class="st2" points="255,378.4 260.9,381.8 260.9,375.9 255,372.5 				"/>
				<polygon class="st2" points="249.2,381.4 255,384.8 255,378.9 249.2,375.5 				"/>
				<polygon class="st2" points="237.4,374.6 243.3,378 243.3,365.7 237.4,362.4 				"/>
				<polygon class="st2" points="243.3,383.9 249.2,387.2 249.2,381.4 243.3,378 				"/>
				<polygon class="st2" points="267.3,385.4 273.1,388.8 273.1,383 267.3,379.6 				"/>
				<polygon class="st2" points="267.3,397.7 273.1,401.1 273.1,395.2 267.3,391.8 				"/>
				<polygon class="st2" points="261.4,376.2 267.3,379.6 267.3,373.7 261.4,370.3 				"/>
				<polygon class="st2" points="261.4,388.5 267.3,391.8 267.3,386 261.4,382.6 				"/>
				<polygon class="st2" points="238.5,311.9 249.2,318 249.2,312.1 238.5,306 				"/>
				<polygon class="st2" points="244.4,337.1 244.4,309.4 238.5,306 238.5,333.7 				"/>
				<polygon class="st2" points="204.4,331.6 215.1,337.7 215.1,327.1 204.4,320.9 				"/>
				<polygon class="st2" points="238.5,333.7 249.2,339.8 249.2,334 238.5,327.8 				"/>
				<path class="st2" d="M207.1,290.5l21.3,12.3v21.3l-21.3-12.3V290.5 M204.4,286.3v2.7v21.3v2.7l2.7,1.5l21.3,12.3l2.7,1.5v-2.7
					v-21.3v-2.7l-2.7-1.5l-21.3-12.3L204.4,286.3L204.4,286.3z"/>
			</g>
			<polygon class="st2" points="300.8,321.3 201.1,262.9 201.1,255.1 300.8,313.4 			"/>
			<polygon class="st2" points="300.8,286.6 201.1,228.3 201.1,220.4 300.8,278.8 			"/>
		</g>
		<linearGradient id="SVGID_3_" gradientUnits="userSpaceOnUse" x1="177.4898" y1="442.4922" x2="288.669" y2="249.9243">
			<stop  offset="0" style="stop-color:#454545"/>
			<stop  offset="1" style="stop-color:#454545;stop-opacity:0"/>
		</linearGradient>
		<polygon class="st8" points="166,179.1 181.5,188.1 181.5,373.9 300.4,441.5 300.6,512.6 166,435.9 		"/>
	</g>
</g>
</svg>
