<?xml version="1.0" encoding="utf-8"?>
<!-- Generator: Adobe Illustrator 23.0.1, SVG Export Plug-In . SVG Version: 6.00 Build 0)  -->
<svg version="1.1" id="Capa_1" xmlns="http://www.w3.org/2000/svg" xmlns:xlink="http://www.w3.org/1999/xlink" x="0px" y="0px"
	 viewBox="0 0 33 28" style="enable-background:new 0 0 33 28;" xml:space="preserve">
<style type="text/css">
	.st0{fill:#7063F1;}
</style>
<g>
	<path class="st0" d="M13.7,11.3c-0.4-0.4-1-0.4-1.4,0l-4.2,4.2C8.8,7.9,15.2,2,23,2c0.6,0,1-0.4,1-1s-0.4-1-1-1
		C14.1,0,6.8,6.9,6.1,15.7l-4.4-4.4c-0.4-0.4-1-0.4-1.4,0s-0.4,1,0,1.4l6,6C6.5,18.9,6.7,19,7,19s0.5-0.1,0.7-0.3l6-6
		C14.1,12.3,14.1,11.7,13.7,11.3z"/>
	<path class="st0" d="M32.7,15.3l-6-6c-0.4-0.4-1-0.4-1.4,0l-6,6c-0.4,0.4-0.4,1,0,1.4s1,0.4,1.4,0l4.2-4.2C24.2,20.1,17.8,26,10,26
		c-0.6,0-1,0.4-1,1s0.4,1,1,1c8.9,0,16.2-6.9,16.9-15.7l4.4,4.4c0.2,0.2,0.5,0.3,0.7,0.3s0.5-0.1,0.7-0.3
		C33.1,16.3,33.1,15.7,32.7,15.3z"/>
</g>
</svg>
