<svg xmlns="http://www.w3.org/2000/svg" xmlns:xlink="http://www.w3.org/1999/xlink" viewBox="0 0 276.14 409.13"><defs><style>.cls-1{fill:#fff;}.cls-2{fill:url(#Degradado_sin_nombre_8);}.cls-3{fill:none;stroke:#fff;stroke-miterlimit:10;stroke-width:2.46px;}.cls-4{fill:url(#Degradado_sin_nombre_8-2);}.cls-5{fill:url(#Degradado_sin_nombre_8-3);}.cls-6{fill:url(#Degradado_sin_nombre_8-4);}.cls-7{fill:url(#Degradado_sin_nombre_8-6);}</style><linearGradient id="Degradado_sin_nombre_8" x1="221.39" y1="153.29" x2="54.4" y2="153.29" gradientUnits="userSpaceOnUse"><stop offset="0" stop-color="#f26567"/><stop offset="1" stop-color="#f6a054"/></linearGradient><linearGradient id="Degradado_sin_nombre_8-2" x1="262.94" y1="336.57" x2="14.49" y2="336.57" xlink:href="#Degradado_sin_nombre_8"/><linearGradient id="Degradado_sin_nombre_8-3" x1="262.94" y1="343.47" x2="14.49" y2="343.47" xlink:href="#Degradado_sin_nombre_8"/><linearGradient id="Degradado_sin_nombre_8-4" x1="262.94" y1="349.55" x2="14.49" y2="349.55" xlink:href="#Degradado_sin_nombre_8"/><linearGradient id="Degradado_sin_nombre_8-6" x1="262.94" y1="336.41" x2="14.49" y2="336.41" xlink:href="#Degradado_sin_nombre_8"/></defs><title>Logo_pagalo</title><g id="Capa_2" data-name="Capa 2"><g id="Capa_1-2" data-name="Capa 1"><rect class="cls-1" width="276.14" height="409.13" rx="47.51" ry="47.51"/><path class="cls-2" d="M145.87,33.19v0h-43.2A39.06,39.06,0,0,0,63.62,72.22V234.37a39.06,39.06,0,0,0,39.06,39.06h0a39.06,39.06,0,0,0,39.06-39.06v-42l2.07,0a79.59,79.59,0,0,0,2.07-159.16Z"/><circle class="cls-1" cx="86.95" cy="170.24" r="13.79"/><circle class="cls-1" cx="179.79" cy="119.3" r="12.5"/><circle class="cls-1" cx="101.74" cy="81.51" r="12.5"/><polyline class="cls-3" points="87.13 170.06 181.2 119.53 101.51 80.92"/><path class="cls-4" d="M35.26,359.18a5.2,5.2,0,0,1-1.42-3.85V317.48a4.47,4.47,0,0,1,4.93-4.93h17q7.77,0,12.1,3.92t4.33,10.95q0,7-4.33,10.95t-12.1,3.92H44.39v13a5.45,5.45,0,0,1-9.12,3.85Zm19.13-24.87q7.91,0,7.91-6.83t-7.91-6.89h-10v13.72Z"/><path class="cls-5" d="M102.91,329.75q3.51,3.55,3.51,10.85v15.27a4.64,4.64,0,0,1-1.28,3.48,4.92,4.92,0,0,1-3.58,1.25,4.7,4.7,0,0,1-3.48-1.32,4.62,4.62,0,0,1-1.32-3.41v-.47a8,8,0,0,1-3.38,3.92,10.57,10.57,0,0,1-5.54,1.42,13.62,13.62,0,0,1-6.12-1.35,10.7,10.7,0,0,1-4.32-3.78,9.67,9.67,0,0,1-1.59-5.41,8.35,8.35,0,0,1,1.86-5.74,11.11,11.11,0,0,1,6-3,52.82,52.82,0,0,1,11.29-.95h1.76v-1.22a5.75,5.75,0,0,0-1.25-4.12q-1.25-1.28-4.16-1.28a26.57,26.57,0,0,0-8.38,2,6.36,6.36,0,0,1-2.64.74,2.92,2.92,0,0,1-2.37-1,4.11,4.11,0,0,1-.88-2.74,3.83,3.83,0,0,1,.61-2.23,5.63,5.63,0,0,1,2-1.62,22,22,0,0,1,5.78-2,31.56,31.56,0,0,1,6.72-.74Q99.4,326.2,102.91,329.75Zm-8,22a7.36,7.36,0,0,0,1.82-5.17v-1.15H95.54q-5.47,0-7.67.88a3.18,3.18,0,0,0-2.2,3.18,4,4,0,0,0,1.25,3.07,4.39,4.39,0,0,0,3.14,1.18A6.2,6.2,0,0,0,94.87,351.71Z"/><path class="cls-6" d="M146.53,327.65a4.58,4.58,0,0,1,1.39,3.48v25.48q0,8-4.66,12.16T129.6,372.9q-7.57,0-12.43-2.7a5.48,5.48,0,0,1-1.89-1.66,3.78,3.78,0,0,1-.68-2.2,4.49,4.49,0,0,1,.81-2.77,2.57,2.57,0,0,1,2.16-1.08,6.24,6.24,0,0,1,1.76.3q1,.3,2.1.71a40.3,40.3,0,0,0,4,1.28,15.61,15.61,0,0,0,3.92.47q4.32,0,6.42-2t2.09-5.95v-3.65a10,10,0,0,1-4.26,4.05,13.48,13.48,0,0,1-6.35,1.49,14.5,14.5,0,0,1-7.67-2,13.88,13.88,0,0,1-5.24-5.78,20.87,20.87,0,0,1,0-17.37,14.11,14.11,0,0,1,5.24-5.81,14.32,14.32,0,0,1,7.67-2.06,13.39,13.39,0,0,1,6.25,1.45,10.31,10.31,0,0,1,4.29,4V331a4.37,4.37,0,0,1,1.39-3.41,5.29,5.29,0,0,1,3.68-1.25A5.12,5.12,0,0,1,146.53,327.65Zm-10.75,21.52a9.48,9.48,0,0,0,2-6.42,9.62,9.62,0,0,0-2-6.45,6.94,6.94,0,0,0-5.58-2.33,7,7,0,0,0-5.61,2.33,9.51,9.51,0,0,0-2,6.45,9.38,9.38,0,0,0,2,6.42,7.09,7.09,0,0,0,5.61,2.3A7,7,0,0,0,135.79,349.18Z"/><path class="cls-5" d="M181.5,329.75Q185,333.3,185,340.59v15.27a4.64,4.64,0,0,1-1.28,3.48,4.92,4.92,0,0,1-3.58,1.25,4.7,4.7,0,0,1-3.48-1.32,4.62,4.62,0,0,1-1.32-3.41v-.47a8,8,0,0,1-3.38,3.92,10.57,10.57,0,0,1-5.54,1.42,13.62,13.62,0,0,1-6.12-1.35A10.7,10.7,0,0,1,156,355.6a9.67,9.67,0,0,1-1.59-5.41,8.35,8.35,0,0,1,1.86-5.74,11.11,11.11,0,0,1,6-3,52.82,52.82,0,0,1,11.29-.95h1.76v-1.22a5.75,5.75,0,0,0-1.25-4.12q-1.25-1.28-4.16-1.28a26.57,26.57,0,0,0-8.38,2,6.36,6.36,0,0,1-2.64.74,2.92,2.92,0,0,1-2.37-1,4.11,4.11,0,0,1-.88-2.74,3.83,3.83,0,0,1,.61-2.23,5.63,5.63,0,0,1,2-1.62,22,22,0,0,1,5.78-2,31.56,31.56,0,0,1,6.72-.74Q178,326.2,181.5,329.75Zm-8,22a7.36,7.36,0,0,0,1.82-5.17v-1.15h-1.15q-5.47,0-7.67.88a3.18,3.18,0,0,0-2.2,3.18,4,4,0,0,0,1.25,3.07,4.39,4.39,0,0,0,3.14,1.18A6.2,6.2,0,0,0,173.46,351.71Z"/><path class="cls-7" d="M194.11,359.38a4.4,4.4,0,0,1-1.45-3.58V317a4.4,4.4,0,0,1,1.45-3.58,5.54,5.54,0,0,1,3.68-1.22,5.44,5.44,0,0,1,3.62,1.22,4.41,4.41,0,0,1,1.45,3.58V355.8a4.41,4.41,0,0,1-1.45,3.58,5.44,5.44,0,0,1-3.62,1.22A5.54,5.54,0,0,1,194.11,359.38Z"/><path class="cls-5" d="M217.39,358.6a14.92,14.92,0,0,1-6.15-6,20.47,20.47,0,0,1,0-18.31,14.71,14.71,0,0,1,6.15-6,21.5,21.5,0,0,1,18.52,0,14.72,14.72,0,0,1,6.15,6,20.47,20.47,0,0,1,0,18.31,14.93,14.93,0,0,1-6.15,6,21.2,21.2,0,0,1-18.52,0Zm16.69-15.17q0-4.8-1.93-7.16a6.7,6.7,0,0,0-5.51-2.37q-7.43,0-7.43,9.53t7.43,9.53Q234.08,353,234.08,343.43Z"/></g></g></svg>